<?xml version="1.0" standalone="no"?>
<!DOCTYPE svg PUBLIC "-//W3C//DTD SVG 20010904//EN"
 "http://www.w3.org/TR/2001/REC-SVG-20010904/DTD/svg10.dtd">
<svg version="1.0" xmlns="http://www.w3.org/2000/svg"
 width="270.000000pt" height="270.000000pt" viewBox="0 0 270.000000 270.000000"
 preserveAspectRatio="xMidYMid meet">

<g transform="translate(0.000000,270.000000) scale(0.100000,-0.100000)"
fill="#ffffff" stroke="none">
<path fill="#9b0505" d="M1220 2165 c-206 -46 -389 -216 -452 -420 -31 -99 -31 -253 -1 -350
60 -190 218 -348 408 -408 54 -16 95 -21 175 -21 171 0 291 48 415 166 80 76
125 145 162 250 36 100 38 259 6 363 -60 189 -217 348 -403 406 -86 27 -225
33 -310 14z m202 -202 c55 -55 56 -61 27 -179 -12 -46 -19 -87 -16 -91 4 -3
45 4 91 16 47 11 95 21 108 21 23 0 118 -85 118 -105 0 -12 -487 -501 -494
-495 -2 3 -7 37 -11 76 l-7 70 36 39 c20 21 36 43 36 49 0 6 -54 65 -120 131
-66 66 -120 123 -120 127 0 5 34 8 76 8 l77 0 91 -90 92 -90 69 72 c39 39 63
69 55 66 -8 -3 -45 -11 -83 -18 l-67 -14 -40 39 c-45 44 -46 52 -24 137 8 33
13 62 11 64 -2 2 -33 -25 -69 -61 l-65 -65 -81 0 c-45 0 -82 3 -82 7 0 12 323
333 335 333 5 0 31 -21 57 -47z"/>
</g>
</svg>
