<?xml version="1.0" standalone="no"?>
<!DOCTYPE svg PUBLIC "-//W3C//DTD SVG 20010904//EN"
 "http://www.w3.org/TR/2001/REC-SVG-20010904/DTD/svg10.dtd">
<svg version="1.0" xmlns="http://www.w3.org/2000/svg"
 width="225.000000pt" height="225.000000pt" viewBox="0 0 225.000000 225.000000"
 preserveAspectRatio="xMidYMid meet">
<metadata>
Created by potrace 1.14, written by Peter Selinger 2001-2017
</metadata>
<g transform="translate(0.000000,225.000000) scale(0.100000,-0.100000)"
fill="#000000" stroke="none">
<path d="M975 2204 c-102 -20 -140 -30 -205 -52 -311 -104 -575 -372 -679
-692 -76 -232 -65 -520 28 -750 52 -128 121 -229 231 -341 141 -142 255 -216
425 -273 706 -237 1435 285 1435 1029 0 527 -370 971 -890 1069 -75 15 -291
20 -345 10z m279 -383 c58 -58 88 -96 89 -112 1 -13 -18 -102 -42 -197 -24
-95 -41 -175 -38 -178 3 -3 89 15 191 40 131 33 192 44 204 37 9 -5 54 -48
100 -95 70 -71 82 -88 73 -103 -15 -27 -869 -878 -876 -872 -2 3 -10 63 -16
134 l-11 128 66 66 c36 37 66 73 66 81 0 8 -99 114 -220 235 -121 121 -220
223 -220 227 0 5 64 8 143 8 l142 0 145 -146 c80 -80 153 -150 163 -155 16 -9
37 8 143 112 68 68 124 126 124 130 0 3 -66 -9 -146 -27 -99 -23 -151 -31
-162 -25 -9 5 -46 39 -81 75 l-65 65 32 138 c18 76 32 145 32 153 0 8 -57 -43
-128 -113 l-127 -127 -150 0 -150 0 305 305 c168 168 309 305 315 305 6 0 50
-40 99 -89z"/>
</g>
</svg>
